<svg id="Layer_1" data-name="Layer 1" xmlns="http://www.w3.org/2000/svg" viewBox="0 0 512 512"><defs><style>.cls-1{fill:none;stroke-width:20px;}.cls-1,.cls-2{stroke:#2e3440;stroke-miterlimit:10;}.cls-2,.cls-3{fill:#2e3440;}</style></defs><path class="cls-1" d="M104.67,316.28h80.49a10.56,10.56,0,0,1,10.56,10.56v80.49A23.31,23.31,0,0,0,219,430.64H293a23.31,23.31,0,0,0,23.31-23.31V326.84a10.56,10.56,0,0,1,10.56-10.56h80.49A23.31,23.31,0,0,0,430.64,293V219a23.31,23.31,0,0,0-23.31-23.31H326.84a10.56,10.56,0,0,1-10.56-10.56V104.67A23.31,23.31,0,0,0,293,81.36H219a23.31,23.31,0,0,0-23.31,23.31v80.49a10.56,10.56,0,0,1-10.56,10.56H104.67A23.31,23.31,0,0,0,81.36,219V293A23.31,23.31,0,0,0,104.67,316.28Z"/><path class="cls-2" d="M390.77,255.11l-23.62-14.48a1.78,1.78,0,0,0-2.71,1.51v29a1.78,1.78,0,0,0,2.71,1.52l23.62-14.49A1.78,1.78,0,0,0,390.77,255.11Z"/><path class="cls-3" d="M185.16,196.34H104.67a23.31,23.31,0,0,0-23.31,23.31v73.94a23.31,23.31,0,0,0,23.31,23.31h80.49c5.83,0,20.57,4.73,20.57,10.56V185.78C205.73,191.62,191,196.34,185.16,196.34Zm-37.6,60.28V271.1a1.78,1.78,0,0,1-2.7,1.52l-23.62-14.49a1.77,1.77,0,0,1,0-3l23.62-14.48a1.77,1.77,0,0,1,2.7,1.51Z"/><path class="cls-2" d="M254.49,119.78,240,143.4a1.77,1.77,0,0,0,1.51,2.7h29a1.77,1.77,0,0,0,1.51-2.7l-14.48-23.62A1.77,1.77,0,0,0,254.49,119.78Z"/><path class="cls-2" d="M257.51,392.22,272,368.6a1.77,1.77,0,0,0-1.51-2.7h-29a1.77,1.77,0,0,0-1.51,2.7l14.48,23.62A1.77,1.77,0,0,0,257.51,392.22Z"/></svg>