<svg id="Layer_1" data-name="Layer 1" xmlns="http://www.w3.org/2000/svg" viewBox="0 0 512 512"><defs><style>.cls-1{fill:none;stroke:#2e3440;stroke-width:20px;}.cls-2{fill:#2e3440;}</style></defs><circle class="cls-1" cx="381.19" cy="260.33" r="56.36"/><circle class="cls-1" cx="130.81" cy="260.33" r="56.36"/><path class="cls-2" d="M189.64,131.1A66.36,66.36,0,1,1,256,197.46,66.43,66.43,0,0,1,189.64,131.1Zm112.72,0A46.36,46.36,0,1,0,256,177.46,46.41,46.41,0,0,0,302.36,131.1Z"/><circle class="cls-1" cx="256" cy="390.9" r="56.36"/><path class="cls-2" d="M401.89,258.4l-34-20.85a2.56,2.56,0,0,0-3.89,2.18v41.7a2.56,2.56,0,0,0,3.89,2.18l34-20.85A2.56,2.56,0,0,0,401.89,258.4Z"/><path class="cls-2" d="M107.64,262.76l34,20.85a2.56,2.56,0,0,0,3.89-2.18v-41.7a2.56,2.56,0,0,0-3.89-2.18l-34,20.85A2.56,2.56,0,0,0,107.64,262.76Z"/><path class="cls-2" d="M312.36,131.1A56.36,56.36,0,1,0,256,187.46,56.36,56.36,0,0,0,312.36,131.1Zm-57.6,13.53H233.91a2.55,2.55,0,0,1-2.17-3.89l20.85-34a2.55,2.55,0,0,1,4.35,0l20.85,34a2.55,2.55,0,0,1-2.17,3.89Z"/><path class="cls-2" d="M256.94,413.09l20.85-34a2.55,2.55,0,0,0-2.17-3.89H233.91a2.55,2.55,0,0,0-2.17,3.89l20.85,34A2.55,2.55,0,0,0,256.94,413.09Z"/></svg>