<svg id="Layer_1" data-name="Layer 1" xmlns="http://www.w3.org/2000/svg" viewBox="0 0 512 512"><defs><style>.cls-1{fill:none;stroke:#2e3440;stroke-width:20px;}.cls-2{fill:#2e3440;}</style></defs><circle class="cls-1" cx="251.67" cy="381.19" r="56.36"/><circle class="cls-1" cx="251.67" cy="130.81" r="56.36"/><path class="cls-2" d="M380.9,189.64A66.36,66.36,0,1,1,314.54,256,66.43,66.43,0,0,1,380.9,189.64Zm0,112.72A46.36,46.36,0,1,0,334.54,256,46.41,46.41,0,0,0,380.9,302.36Z"/><circle class="cls-1" cx="121.1" cy="256" r="56.36"/><path class="cls-2" d="M253.6,401.89l20.85-34a2.56,2.56,0,0,0-2.18-3.89h-41.7a2.56,2.56,0,0,0-2.18,3.89l20.85,34A2.56,2.56,0,0,0,253.6,401.89Z"/><path class="cls-2" d="M249.24,107.64l-20.85,34a2.56,2.56,0,0,0,2.18,3.89h41.7a2.56,2.56,0,0,0,2.18-3.89l-20.85-34A2.56,2.56,0,0,0,249.24,107.64Z"/><path class="cls-2" d="M380.9,312.36A56.36,56.36,0,1,0,324.54,256,56.36,56.36,0,0,0,380.9,312.36Zm-13.53-57.6V233.91a2.55,2.55,0,0,1,3.89-2.17l34,20.85a2.55,2.55,0,0,1,0,4.35l-34,20.85a2.55,2.55,0,0,1-3.89-2.17Z"/><path class="cls-2" d="M98.91,256.94l34,20.85a2.55,2.55,0,0,0,3.89-2.17V233.91a2.55,2.55,0,0,0-3.89-2.17l-34,20.85A2.55,2.55,0,0,0,98.91,256.94Z"/></svg>