<svg id="Layer_1" data-name="Layer 1" xmlns="http://www.w3.org/2000/svg" viewBox="0 0 512 512"><defs><style>.cls-1{fill:none;stroke:#2e3440;stroke-width:20px;}.cls-2{fill:#2e3440;}</style></defs><circle class="cls-1" cx="260.33" cy="130.81" r="56.36"/><circle class="cls-1" cx="260.33" cy="381.19" r="56.36"/><path class="cls-2" d="M131.1,322.36A66.36,66.36,0,1,1,197.46,256,66.43,66.43,0,0,1,131.1,322.36Zm0-112.72A46.36,46.36,0,1,0,177.46,256,46.41,46.41,0,0,0,131.1,209.64Z"/><circle class="cls-1" cx="390.9" cy="256" r="56.36"/><path class="cls-2" d="M258.4,110.11l-20.85,34a2.56,2.56,0,0,0,2.18,3.89h41.7a2.56,2.56,0,0,0,2.18-3.89l-20.85-34A2.56,2.56,0,0,0,258.4,110.11Z"/><path class="cls-2" d="M262.76,404.36l20.85-34a2.56,2.56,0,0,0-2.18-3.89h-41.7a2.56,2.56,0,0,0-2.18,3.89l20.85,34A2.56,2.56,0,0,0,262.76,404.36Z"/><path class="cls-2" d="M131.1,199.64A56.36,56.36,0,1,0,187.46,256,56.36,56.36,0,0,0,131.1,199.64Zm13.53,57.6v20.85a2.55,2.55,0,0,1-3.89,2.17l-34-20.85a2.55,2.55,0,0,1,0-4.35l34-20.85a2.55,2.55,0,0,1,3.89,2.17Z"/><path class="cls-2" d="M413.09,255.06l-34-20.85a2.55,2.55,0,0,0-3.89,2.17v41.71a2.55,2.55,0,0,0,3.89,2.17l34-20.85A2.55,2.55,0,0,0,413.09,255.06Z"/></svg>