<svg id="Layer_1" data-name="Layer 1" xmlns="http://www.w3.org/2000/svg" viewBox="0 0 512 512"><defs><style>.cls-1{fill:#2e3440;}</style></defs><polygon class="cls-1" points="173.87 98.67 255.67 167.2 338.13 98.67 173.87 98.67"/><path class="cls-1" d="M262.57,271.64H240.15v30h23.19q4.49,0,7.73-4.25a17.44,17.44,0,0,0,3.25-10.9c0-4.54-1.24-8.14-3.71-10.83S265.45,271.64,262.57,271.64Z"/><path class="cls-1" d="M415.84,181.87H94.16A48,48,0,0,0,46.23,229.8v12.33a48,48,0,0,0,47.93,47.93h66v97.73a35.58,35.58,0,0,0,35.54,35.54H316.28a35.58,35.58,0,0,0,35.54-35.54V290.06h64a48,48,0,0,0,47.93-47.93V229.8A48,48,0,0,0,415.84,181.87ZM277.72,359.14l-21-35.41H240.15v35.41H214.8V249.37h49.47a31.9,31.9,0,0,1,14.3,3.25,38.07,38.07,0,0,1,11.36,8.5,40.14,40.14,0,0,1,7.5,11.91,35.44,35.44,0,0,1,2.7,13.45,38.67,38.67,0,0,1-1.23,9.81,38.08,38.08,0,0,1-3.56,8.89,33.07,33.07,0,0,1-5.64,7.5,33.52,33.52,0,0,1-7.5,5.64l24.12,40.82Z"/></svg>