<svg id="Layer_1" data-name="Layer 1" xmlns="http://www.w3.org/2000/svg" viewBox="0 0 512 512"><defs><style>.cls-1{fill:#eceff4;}</style></defs><path class="cls-1" d="M269.05,267.62H233.76V308h37.8c3.31-.74,14.83-3,14.83-20.19C286.39,272.13,269.05,267.62,269.05,267.62Z"/><path class="cls-1" d="M280.43,225.61c0-14.29-8.83-17.82-8.83-17.82H233.76v35.64h33.46S280.45,239.87,280.43,225.61Z"/><path class="cls-1" d="M256,103.51c-84.08,0-152.49,68.41-152.49,152.49S171.92,408.49,256,408.49,408.49,340.08,408.49,256,340.08,103.51,256,103.51Zm18.22,228.56-.8.11H209.77V183.6h58.37a32.31,32.31,0,0,1,25.94,12.77c5.15,6.87,9.89,16.26,9.89,27.52,0,7.44-5.35,23.13-11.29,28.64,10.12,6.61,18.07,20.91,17.69,37.82C309.65,322.31,286.41,330.42,274.22,332.07Z"/></svg>