<svg id="Layer_1" data-name="Layer 1" xmlns="http://www.w3.org/2000/svg" viewBox="0 0 512 512"><defs><style>.cls-1{fill:#eceff4;}</style></defs><path class="cls-1" d="M407.33,185.72H326.84a.56.56,0,0,1-.56-.56V104.67A33.35,33.35,0,0,0,293,71.36H219a33.35,33.35,0,0,0-33.31,33.31v80.49a.56.56,0,0,1-.56.56H104.67A33.34,33.34,0,0,0,71.36,219V293a33.34,33.34,0,0,0,33.31,33.31h80.49a.56.56,0,0,1,.56.56v80.49A33.35,33.35,0,0,0,219,440.64H293a33.35,33.35,0,0,0,33.31-33.31V326.84a.56.56,0,0,1,.56-.56h80.49A33.34,33.34,0,0,0,440.64,293V219A33.34,33.34,0,0,0,407.33,185.72ZM146.6,270.48a2.26,2.26,0,0,1-1.17,2,2.33,2.33,0,0,1-1.11.29,2.24,2.24,0,0,1-1.19-.34l-23.61-14.48a2.27,2.27,0,0,1,0-3.88l23.61-14.48a2.28,2.28,0,0,1,3.47,1.94Zm125.2,96.93L257.32,391a2.27,2.27,0,0,1-1.94,1.08h0a2.28,2.28,0,0,1-1.94-1.08L239,367.41a2.28,2.28,0,0,1,1.94-3.47h29a2.29,2.29,0,0,1,1.94,3.47Zm0-220.52a2.25,2.25,0,0,1-2,1.17h-29a2.28,2.28,0,0,1-1.94-3.47L253.44,121a2.28,2.28,0,0,1,3.88,0l14.48,23.62A2.26,2.26,0,0,1,271.84,146.89ZM392.49,257.94l-23.62,14.48a2.24,2.24,0,0,1-1.19.34,2.33,2.33,0,0,1-1.11-.29,2.26,2.26,0,0,1-1.17-2v-29a2.28,2.28,0,0,1,3.47-1.94l23.62,14.48a2.28,2.28,0,0,1,0,3.88Z"/></svg>