<svg id="Layer_1" data-name="Layer 1" xmlns="http://www.w3.org/2000/svg" viewBox="0 0 512 512"><defs><style>.cls-1{fill:none;stroke-width:20px;}.cls-1,.cls-2{stroke:#eceff4;stroke-miterlimit:10;}.cls-2,.cls-3{fill:#eceff4;}</style></defs><path class="cls-1" d="M407.33,195.72H326.84a10.56,10.56,0,0,1-10.56-10.56V104.67A23.31,23.31,0,0,0,293,81.36H219a23.31,23.31,0,0,0-23.31,23.31v80.49a10.56,10.56,0,0,1-10.56,10.56H104.67A23.31,23.31,0,0,0,81.36,219V293a23.31,23.31,0,0,0,23.31,23.31h80.49a10.56,10.56,0,0,1,10.56,10.56v80.49A23.31,23.31,0,0,0,219,430.64H293a23.31,23.31,0,0,0,23.31-23.31V326.84a10.56,10.56,0,0,1,10.56-10.56h80.49A23.31,23.31,0,0,0,430.64,293V219A23.31,23.31,0,0,0,407.33,195.72Z"/><path class="cls-2" d="M121.23,256.89l23.62,14.48a1.78,1.78,0,0,0,2.71-1.51v-29a1.78,1.78,0,0,0-2.71-1.51l-23.62,14.48A1.79,1.79,0,0,0,121.23,256.89Z"/><path class="cls-3" d="M326.84,315.65h80.49a23.3,23.3,0,0,0,23.31-23.31V218.41a23.3,23.3,0,0,0-23.31-23.31H326.84c-5.83,0-20.57-4.73-20.57-10.56V326.22C306.27,320.38,321,315.65,326.84,315.65Zm37.6-60.27V240.89a1.78,1.78,0,0,1,2.7-1.51l23.62,14.48a1.78,1.78,0,0,1,0,3l-23.62,14.48a1.77,1.77,0,0,1-2.7-1.51Z"/><path class="cls-2" d="M257.51,392.22,272,368.6a1.77,1.77,0,0,0-1.51-2.7h-29a1.77,1.77,0,0,0-1.51,2.7l14.48,23.62A1.77,1.77,0,0,0,257.51,392.22Z"/><path class="cls-2" d="M254.49,119.78,240,143.4a1.77,1.77,0,0,0,1.51,2.7h29a1.77,1.77,0,0,0,1.51-2.7l-14.48-23.62A1.77,1.77,0,0,0,254.49,119.78Z"/></svg>