<svg id="Layer_1" data-name="Layer 1" xmlns="http://www.w3.org/2000/svg" viewBox="0 0 512 512"><defs><style>.cls-1{fill:none;stroke-width:20px;}.cls-1,.cls-2{stroke:#eceff4;stroke-miterlimit:10;}.cls-2,.cls-3{fill:#eceff4;}</style></defs><path class="cls-1" d="M316.28,407.33V326.84a10.56,10.56,0,0,1,10.56-10.56h80.49A23.31,23.31,0,0,0,430.64,293V219a23.31,23.31,0,0,0-23.31-23.31H326.84a10.56,10.56,0,0,1-10.56-10.56V104.67A23.31,23.31,0,0,0,293,81.36H219a23.31,23.31,0,0,0-23.31,23.31v80.49a10.56,10.56,0,0,1-10.56,10.56H104.67A23.31,23.31,0,0,0,81.36,219V293a23.31,23.31,0,0,0,23.31,23.31h80.49a10.56,10.56,0,0,1,10.56,10.56v80.49A23.31,23.31,0,0,0,219,430.64H293A23.31,23.31,0,0,0,316.28,407.33Z"/><path class="cls-2" d="M255.11,121.23l-14.48,23.62a1.77,1.77,0,0,0,1.51,2.7h29a1.78,1.78,0,0,0,1.52-2.7l-14.49-23.62A1.78,1.78,0,0,0,255.11,121.23Z"/><path class="cls-3" d="M196.34,326.84v80.49a23.31,23.31,0,0,0,23.31,23.31h73.94a23.31,23.31,0,0,0,23.31-23.31V326.84c0-5.83,4.73-20.57,10.56-20.57H185.78C191.62,306.27,196.34,321,196.34,326.84Zm60.28,37.6H271.1a1.78,1.78,0,0,1,1.52,2.7l-14.49,23.62a1.77,1.77,0,0,1-3,0l-14.48-23.62a1.77,1.77,0,0,1,1.51-2.7Z"/><path class="cls-2" d="M119.78,257.51,143.4,272a1.77,1.77,0,0,0,2.7-1.51v-29a1.78,1.78,0,0,0-2.7-1.52l-23.62,14.49A1.77,1.77,0,0,0,119.78,257.51Z"/><path class="cls-2" d="M392.22,254.49,368.6,240a1.78,1.78,0,0,0-2.7,1.52v29a1.77,1.77,0,0,0,2.7,1.51l23.62-14.48A1.77,1.77,0,0,0,392.22,254.49Z"/></svg>