<svg id="Layer_1" data-name="Layer 1" xmlns="http://www.w3.org/2000/svg" viewBox="0 0 512 512"><defs><style>.cls-1{fill:#eceff4;}</style></defs><path class="cls-1" d="M255.33,64.46a66.36,66.36,0,1,0,66.35,66.35A66.43,66.43,0,0,0,255.33,64.46ZM276.43,148h-41.7a2.56,2.56,0,0,1-2.18-3.89l20.85-34a2.56,2.56,0,0,1,4.36,0l20.85,34A2.56,2.56,0,0,1,276.43,148Z"/><path class="cls-1" d="M255.33,314.83a66.36,66.36,0,1,0,66.35,66.36A66.44,66.44,0,0,0,255.33,314.83Zm23.28,55.52-20.85,34a2.56,2.56,0,0,1-4.36,0l-20.85-34a2.56,2.56,0,0,1,2.18-3.89h41.7A2.56,2.56,0,0,1,278.61,370.35Z"/><path class="cls-1" d="M126.1,189.64A66.36,66.36,0,1,0,192.46,256,66.43,66.43,0,0,0,126.1,189.64Zm13.53,67.6v20.85a2.55,2.55,0,0,1-3.89,2.17l-34-20.85a2.55,2.55,0,0,1,0-4.35l34-20.85a2.55,2.55,0,0,1,3.89,2.17Z"/><path class="cls-1" d="M385.9,189.64A66.36,66.36,0,1,0,452.25,256,66.44,66.44,0,0,0,385.9,189.64Zm22.19,69.77-34,20.85a2.55,2.55,0,0,1-3.89-2.17V236.38a2.55,2.55,0,0,1,3.89-2.17l34,20.85A2.55,2.55,0,0,1,408.09,259.41Z"/></svg>