<svg id="Layer_1" data-name="Layer 1" xmlns="http://www.w3.org/2000/svg" viewBox="0 0 512 512"><defs><style>.cls-1{fill:none;stroke:#eceff4;stroke-width:20px;}.cls-2{fill:#eceff4;}</style></defs><circle class="cls-1" cx="130.81" cy="251.67" r="56.36"/><circle class="cls-1" cx="381.19" cy="251.67" r="56.36"/><path class="cls-2" d="M322.36,380.9A66.36,66.36,0,1,1,256,314.54,66.43,66.43,0,0,1,322.36,380.9Zm-112.72,0A46.36,46.36,0,1,0,256,334.54,46.41,46.41,0,0,0,209.64,380.9Z"/><circle class="cls-1" cx="256" cy="121.1" r="56.36"/><path class="cls-2" d="M110.11,253.6l34,20.85a2.56,2.56,0,0,0,3.89-2.18v-41.7a2.56,2.56,0,0,0-3.89-2.18l-34,20.85A2.56,2.56,0,0,0,110.11,253.6Z"/><path class="cls-2" d="M404.36,249.24l-34-20.85a2.56,2.56,0,0,0-3.89,2.18v41.7a2.56,2.56,0,0,0,3.89,2.18l34-20.85A2.56,2.56,0,0,0,404.36,249.24Z"/><path class="cls-2" d="M199.64,380.9A56.36,56.36,0,1,0,256,324.54,56.36,56.36,0,0,0,199.64,380.9Zm57.6-13.53h20.85a2.55,2.55,0,0,1,2.17,3.89l-20.85,34a2.55,2.55,0,0,1-4.35,0l-20.85-34a2.55,2.55,0,0,1,2.17-3.89Z"/><path class="cls-2" d="M255.06,98.91l-20.85,34a2.55,2.55,0,0,0,2.17,3.89h41.71a2.55,2.55,0,0,0,2.17-3.89l-20.85-34A2.55,2.55,0,0,0,255.06,98.91Z"/></svg>