<svg id="Layer_1" data-name="Layer 1" xmlns="http://www.w3.org/2000/svg" viewBox="0 0 512 512"><defs><style>.cls-1{fill:#eceff4;}</style></defs><polygon class="cls-1" points="338.13 98.67 173.87 98.67 255.67 167.2 338.13 98.67"/><path class="cls-1" d="M415.84,181.87H94.16A48,48,0,0,0,46.23,229.8v12.33a48,48,0,0,0,47.93,47.93h66v97.73a35.58,35.58,0,0,0,35.54,35.54H316.28a35.58,35.58,0,0,0,35.54-35.54V290.06h64a48,48,0,0,0,47.93-47.93V229.8A48,48,0,0,0,415.84,181.87ZM295.21,359.06H216.79V249.45h25.32v87.38h53.1Z"/></svg>