<svg id="Layer_1" data-name="Layer 1" xmlns="http://www.w3.org/2000/svg" viewBox="0 0 512 512"><defs><style>.cls-1{fill:#eceff4;}</style></defs><path class="cls-1" d="M363.11,85.83l7.43-9.94L256,7.36,140.46,75.89l8.36,9.94C178,64.54,215.3,51.77,256,51.77S333.94,64.54,363.11,85.83Z"/><path class="cls-1" d="M256,83A173,173,0,1,0,429,256,173,173,0,0,0,256,83Zm0,304.88c-72.7,0-131.84-59.14-131.84-131.84S183.3,124.16,256,124.16,387.84,183.3,387.84,256,328.7,387.84,256,387.84Z"/><path class="cls-1" d="M256,144.16A111.84,111.84,0,1,0,367.84,256,112,112,0,0,0,256,144.16Zm44.45,164.2H222V198.75h25.31v87.38h53.11Z"/></svg>