<svg id="Layer_1" data-name="Layer 1" xmlns="http://www.w3.org/2000/svg" viewBox="0 0 512 512"><defs><style>.cls-1{fill:#eceff4;}</style></defs><path class="cls-1" d="M345.27,159.15H39.12v193.7H472.88V286.76A127.76,127.76,0,0,0,345.27,159.15ZM278,300.83l-18.75-31.57H244.51v31.57H221.9V202.94H266a28.35,28.35,0,0,1,12.75,2.9,33.94,33.94,0,0,1,10.14,7.58A35.78,35.78,0,0,1,295.58,224,31.54,31.54,0,0,1,298,236a34.12,34.12,0,0,1-1.11,8.75,33.62,33.62,0,0,1-3.17,7.93,30.39,30.39,0,0,1-5,6.69,30.08,30.08,0,0,1-6.69,5l21.51,36.4Z"/><path class="cls-1" d="M264.49,222.8h-20v26.74h20.67q4,0,6.9-3.79A15.57,15.57,0,0,0,275,236q0-6.06-3.31-9.65T264.49,222.8Z"/></svg>