<svg id="Layer_1" data-name="Layer 1" xmlns="http://www.w3.org/2000/svg" viewBox="0 0 512 512"><defs><style>.cls-1{fill:#eceff4;}</style></defs><path class="cls-1" d="M300,239.06H283.73v21.73h16.8a6.9,6.9,0,0,0,5.6-3.08,12.66,12.66,0,0,0,2.35-7.9,11.06,11.06,0,0,0-2.69-7.84A7.87,7.87,0,0,0,300,239.06Z"/><path class="cls-1" d="M391.12,159.15H66.63v193.7H391.12a54.31,54.31,0,0,0,54.25-54.25V213.4A54.31,54.31,0,0,0,391.12,159.15ZM250.21,287.8a24.16,24.16,0,0,1-7.53,8.49A32.28,32.28,0,0,1,231.81,301,55,55,0,0,1,219,302.5a71.65,71.65,0,0,1-10.4-.78,74.37,74.37,0,0,1-10.41-2.27,83.51,83.51,0,0,1-9.84-3.59,54.56,54.56,0,0,1-8-4.3l8.52-16.91c.54.41,1.35,1,2.58,1.75a52.85,52.85,0,0,0,7.32,3.77,75.41,75.41,0,0,0,9.69,3.34A41.45,41.45,0,0,0,219.38,285c8.28,0,12.47-2.69,12.47-8a6.87,6.87,0,0,0-2-5.05,17,17,0,0,0-5-3.3,52.83,52.83,0,0,0-7.33-2.63c-2.76-.79-5.77-1.66-9-2.63a77.58,77.58,0,0,1-11.05-4.23,28.3,28.3,0,0,1-7.58-5.15,18.32,18.32,0,0,1-4.38-6.63,24.65,24.65,0,0,1-1.45-8.87,28.49,28.49,0,0,1,2.66-12.61,27.43,27.43,0,0,1,7.25-9.23A31.92,31.92,0,0,1,204.59,211a42.68,42.68,0,0,1,12.95-1.94A49.65,49.65,0,0,1,227,210a70.48,70.48,0,0,1,9,2.34,64.9,64.9,0,0,1,8,3.24c2.14,1.06,4.17,2.13,6,3.18l-8.46,16c-.44-.32-1.06-.72-1.94-1.26a53.85,53.85,0,0,0-6.05-3.1,58.5,58.5,0,0,0-7.91-2.81,31.92,31.92,0,0,0-8.71-1.23c-10.42,0-12.6,4.78-12.6,8.78a7.14,7.14,0,0,0,1.47,4.58,12,12,0,0,0,4,3.1,35.44,35.44,0,0,0,6.32,2.38c2.45.7,5.34,1.5,8.58,2.38a110.67,110.67,0,0,1,12,4,31.53,31.53,0,0,1,8.88,5.24,21,21,0,0,1,5.54,7.49,26.34,26.34,0,0,1,2,10.67A26.86,26.86,0,0,1,250.21,287.8ZM311,302.45,295.71,276.8h-12v25.65H265.36V222.93H301.2a23,23,0,0,1,10.36,2.35,27.51,27.51,0,0,1,8.23,6.16,28.86,28.86,0,0,1,5.44,8.63,25.74,25.74,0,0,1,2,9.74,27.72,27.72,0,0,1-3.48,13.55,24.21,24.21,0,0,1-9.52,9.52l17.48,29.57Z"/></svg>