<svg id="Layer_1" data-name="Layer 1" xmlns="http://www.w3.org/2000/svg" viewBox="0 0 512 512"><defs><style>.cls-1{fill:#eceff4;}</style></defs><path class="cls-1" d="M321.53,120H66.46V383.41H457.28V255.79C457.28,180.93,396.39,120,321.53,120ZM254.7,297.73H179.39V281.28L228.88,222H181.26V202.76h72.9v16.45l-47.08,59.26H254.7Zm59.21,0-15.65-26.35H286v26.35H267.07V216H303.9a23.75,23.75,0,0,1,10.65,2.42,28.27,28.27,0,0,1,8.46,6.33,29.85,29.85,0,0,1,5.58,8.86,26.43,26.43,0,0,1,2,10A28.5,28.5,0,0,1,327,257.56a25,25,0,0,1-9.79,9.79l18,30.38Z"/><path class="cls-1" d="M302.63,232.59H286v22.33h17.26a7.11,7.11,0,0,0,5.76-3.17,13,13,0,0,0,2.41-8.11,11.43,11.43,0,0,0-2.76-8.06A8.11,8.11,0,0,0,302.63,232.59Z"/></svg>